<svg xmlns="http://www.w3.org/2000/svg" version="1.0" viewBox="0 0 240 135"><path fill="#AE6B00" stroke="#AE6B00" stroke-width=".1" d="M203 7.5c-4.7 1.3-7.8 2.3-7 2.4.8 0 4-.6 7-1.4 8.5-2.3 8.6-2.3 10.5 5 1 3.6 2.3 6.5 3 6.5.8 0 .6-2.1-.8-7.5-1.1-4.1-2.5-7.5-3.1-7.4-.6 0-4.9 1.1-9.6 2.4zm17.4 33.2c.3 1 1.3 4.8 2.2 8.5 1.2 5 2 6.5 3.1 6.1.8-.3 1.2-1.1 1-1.7s-1.2-4.1-2.2-7.9c-1.1-4.3-2.3-6.7-3.2-6.7s-1.2.7-.9 1.7zM5 95c-.7 5.6-1 10.4-.7 10.7.6.6 24.2 3.3 28.7 3.2 5.4 0-.7-1.7-8.5-2.3-4.4-.4-10.2-.9-12.9-1.3l-4.8-.6.7-7.6c.3-4.2.9-8.6 1.2-9.9.3-1.5.1-2.2-.9-2.2C6.7 85 6 87.5 5 95zm229-.7c0 .8-.8 1.8-1.7 2-1.7.4-1.7.5 0 .6 1.8.1 3.5-2.5 2.3-3.6-.3-.4-.6.1-.6 1zM66.7 111.7c.3.7 2 1.3 4.2 1.3 2 0 5.4.2 7.6.5 4.4.5 5.2.7-8.7-2.4-2.8-.6-3.5-.5-3.1.6z"/><path fill="#A15E00" stroke="#A15E00" stroke-width=".1" d="M15.3 16.2c-.5 4.8-.5 7.5.2 8 1.2.9 2.2-2.9 2.4-8.5.1-2.2.7-4 1.5-4.3 1.3-.5 13.7 1.5 20.6 3.3 1.4.3 2.2.2 1.8-.2-.6-.7-21.5-5.4-24.5-5.5-.7 0-1.5 2.9-2 7.2zM69.7 20c1 .9 24.2 5.4 24.8 4.8.2-.2-5.4-1.5-12.6-2.9-7.1-1.4-12.6-2.3-12.2-1.9zM11.6 45.6c-.3.8-.3 4.8.1 8.7l.7 7.2.7-5c1-7.3 1-12.5 0-12.5-.5 0-1.2.7-1.5 1.6zm208.4 34c-5.7 1.2-8.1 1.7-11.2 2.3-.5 0-.8.8-.8 1.6s-.7 1.5-1.5 1.5c-1.8 0-1.8-.4.1 8.1.9 4 2.1 6.9 2.8 6.9 2 0 24-4.1 24.4-4.5s-.4-4.3-2.9-13.8c-1.1-4.2-1.2-4.2-10.9-2.1zM8.2 92.5c0 1.6.2 2.2.5 1.2.2-.9.2-2.3 0-3-.3-.6-.5.1-.5 1.8zm165.3-1.6c-.5.5-2.6 1.2-4.5 1.5-1.9.2-7.5 1.2-12.3 2.1l-8.8 1.7.7 7.2c.4 3.9.7 7.2.8 7.3.3.3 26.8-4.5 27.2-4.9.2-.2-.2-3.9-.9-8.2-.8-5.1-1.5-7.4-2.2-6.7zM7.2 100.5c0 1.6.2 2.2.5 1.2.2-.9.2-2.3 0-3-.3-.6-.5.1-.5 1.8zm8.1 5.2c.9.2 2.3.2 3 0 .6-.3-.1-.5-1.8-.5-1.6 0-2.2.2-1.2.5zm10 1c.9.2 2.3.2 3 0 .6-.3-.1-.5-1.8-.5-1.6 0-2.2.2-1.2.5zm47 5c.9.2 2.5.2 3.5 0 .9-.3.1-.5-1.8-.5s-2.7.2-1.7.5zm8.5 1c1.2.2 3.2.2 4.5 0 1.2-.2.2-.4-2.3-.4s-3.5.2-2.2.4zm9.5 1c.9.2 2.5.2 3.5 0 .9-.3.1-.5-1.8-.5s-2.7.2-1.7.5zm7.7.7c0 .2 1.8.6 3.9.8 2.2.2 3.7 0 3.5-.4-.5-.8-7.4-1.1-7.4-.4zm9.3 1.4c.6.9 6.4.8 7.4-.1.3-.4-1.3-.7-3.6-.7s-4 .3-3.8.8zm8.9.7c1 1.1 4.8 1.4 4.8.4 0-.5-1.2-.9-2.7-.9-1.4 0-2.4.2-2.1.5z"/><path fill="#945100" stroke="#945100" stroke-width=".1" d="M200.5 9.8c-5.5 1.4-10.2 2.6-10.4 2.8s.1 2.8.8 5.8c.8 3.8 1.7 5.5 3.1 5.9 1.5.4 18.4-3 19.9-3.9.4-.3-1.9-10.5-2.8-12-.4-.7-3.8-.3-10.6 1.4zM154 21.1c-4.1 1.1-9.2 2.4-11.3 3-3.4.9-3.7 1.2-3.1 3.7.4 1.5.8 2.9 1 3 .1.2 5.5-.8 11.9-2.3 9.2-2.2 11.5-3 11.1-4.2-.3-.8-.6-2.3-.6-3.4 0-2.2.5-2.2-9 .2zM13.2 57c0 1.9.2 2.7.5 1.7.2-.9.2-2.5 0-3.5-.3-.9-.5-.1-.5 1.8zm191.1 26.2c.5 1.7 3 1.7 3.3 0 .1-.7 0-.8-.3-.2-.2.5-.9 1-1.4 1-.6 0-.7-.5-.4-1 .3-.6.1-1-.5-1-.7 0-1 .6-.7 1.2zM9.6 86.9c-.3.9-.8 5.1-1.1 9.3l-.7 7.6 4.3.6c7.5 1.1 22.3 2.6 22.5 2.3.1-.1.4-3.7.8-8 .5-5.7.4-7.7-.5-7.7-.7 0-2-.7-3-1.6-1.1-1-5.5-2-11.8-2.8-8.9-1.1-10.1-1-10.5.3zM134.5 98l-13 2.6v7.5l-.1 7.5 13.6-2.5c7.4-1.3 13.6-2.5 13.7-2.5.1-.1-.1-3.4-.5-7.4-.7-6-.6-7.2.7-7.5 4.7-1.3-2.8-.1-14.4 2.3zm-67.2 9c0 1.4.4 2.8 1 3.2 1.7 1.1 6.5 1 7.2-.2.4-.6-.1-.7-1.1-.3-1.3.5-1.5.2-.9-1.8.5-1.8.4-2.1-.4-.9-.6.8-1.1 1.1-1.1.6 0-.6-.6-.2-1.3.8-1.3 1.7-1.4 1.8-2 .2-.4-.9-.3-1.5.2-1.2s1.1-.2 1.3-1.2c.3-1.2-.1-1.8-1.1-1.8s-1.7 1-1.8 2.6zm12 4.7c.9.2 2.5.2 3.5 0 .9-.3.1-.5-1.8-.5s-2.7.2-1.7.5zm8.6.6c.5.5 1.9.7 3.2.5 2-.3 1.9-.5-.9-.9-2-.3-2.9-.2-2.3.4z"/><path fill="#945E00" stroke="#945E00" stroke-width=".1" d="M214 40.9c0 .4-1.1.6-2.3.4-1.4-.3-3.1.2-4 1.2-1 .9-1.7 1.2-1.7.7 0-.4-1.4-.7-3.1-.4-2.9.4-3 .6-2.4 4.1.3 2 1.1 5.9 1.8 8.6l1.2 5.1 10.1-2.1 10.1-2-2-8.3c-1.9-7.9-2-8.2-4.8-8.2-1.6 0-2.9.4-2.9.9zm-65.8 63.6c0 1.6.2 2.2.5 1.2.2-.9.2-2.3 0-3-.3-.6-.5.1-.5 1.8z"/><path fill="#AE5E00" stroke="#AE5E00" stroke-width=".1" d="M10.6 54.2c-1.3 6.1-1.2 7.7 0 8.2 1.1.4 1.4-.7 1.4-4.9 0-5.7-.6-7.1-1.4-3.3zm86.4 61c0 .5 1.8.8 4 .8s4-.2 4-.4-1.8-.6-4-.8-4 0-4 .4z"/><path fill="#865100" stroke="#865100" stroke-width=".1" d="M18.7 14.7c-.7 3.8-.9 10.3-.4 10.3.1 0 4.5.9 9.7 1.9 5.2 1.1 9.7 1.5 9.8 1 .2-.5 1-.9 1.8-.9.9 0 1.4-1.1 1.4-2.9 0-1.6.3-4.2.6-5.8l.6-2.9-9.4-1.8c-5.1-.9-10.2-2-11.4-2.2-1.8-.5-2.2 0-2.7 3.3zM69 24.3c0 3.4.3 3.7 3.8 4.3 2 .4 5.3.8 7.4.8 2 .1 3.4.5 3.1 1-.4.5.6.7 2 .4 1.5-.3 2.8 0 3.1.6.3.7.8.6 1.4-.3.8-1.1 1-1.1 1.5 0 .3.9.6 1 .6.2.1-.6-.4-1.5-.9-1.8-.7-.4-.2-1.4 1.1-2.6l2.3-2-3.2.3c-2.2.1-3.1.7-2.8 1.5.3.7-.1 1.3-.9 1.3s-1.2-.8-1-2c.5-2.5-1.3-2.6-3.1-.3-1.2 1.7-1.2 1.7-1.1-.1.1-1-.4-2.1-1.2-2.4-.9-.3-1.1 0-.6.8.5.9.1.8-1.6-.1-1.3-.8-3.1-1.5-3.9-1.6s-2.5-.5-3.7-.9c-2.1-.6-2.3-.3-2.3 2.9zm57.8 3.5L116 30.4v3.4c0 3.1.2 3.4 2.3 2.8 1.2-.3 6.6-1.6 12-2.8 7.6-1.7 9.7-2.6 9.7-3.9 0-2.3-1-4.9-1.9-4.8-.3 0-5.4 1.3-11.3 2.7zM14.5 50.6c-.3 3.3-.8 7.3-1.1 9l-.4 3.2 8.2 1.1c4.6.6 9.5 1.4 11.1 1.7 2.4.5 2.7.3 2.7-2.4 0-1.6.3-5.6.6-8.9l.7-6-6.4-1.1c-3.5-.6-8.3-1.4-10.6-1.8l-4.1-.6zM32 89.5c.7.8 1.7 1.5 2.2 1.5s.3-.7-.6-1.5c-.8-.8-1.8-1.5-2.2-1.5-.3 0-.1.7.6 1.5zM163.5 91c1.1.5 2.7.9 3.5.9.9 0 .8-.4-.5-.9-1.1-.5-2.7-.9-3.5-.9-.9 0-.8.4.5.9zm-16 3c1.1.5 2.7.9 3.5.9.9 0 .8-.4-.5-.9-1.1-.5-2.7-.9-3.5-.9-.9 0-.8.4.5.9zm-80.4 6.5c.1 3.3.8 6.8 1.5 7.8 1.2 1.8 1.2 1.8 2.3 0 .6-1 1.1-1.4 1.1-.8 0 .5.5.3 1.1-.5.8-1.2.9-.9.4.9-.6 2-.4 2.3.9 1.8 1-.4 1.5-.3 1.1.3s1.1 1.1 3.7 1.1c6.5.3 10.7.7 13.4 1.3 2.4.6 2.4.6 2.4-6.9 0-4.1-.1-7.5-.2-7.6-.2 0-6.5-.8-14.1-1.8l-13.8-1.7zm3.2 5.6c-.4 1.5-.9 1.7-1.7.9s-.7-1.3.4-2c.8-.5 1.6-1 1.7-1 0 0-.1.9-.4 2.1zM142.5 95c1.1.5 2.7.9 3.5.9.9 0 .8-.4-.5-.9-1.1-.5-2.7-.9-3.5-.9-.9 0-.8.4.5.9zm-22.1 6.5c-.3.8-.4 2-.2 2.7.3.7.7.1 1-1.5.6-2.9.1-3.6-.8-1.2zm.6 11.8c0 .8-.8 1.8-1.7 2-1.7.4-1.7.5 0 .6 1.8.1 3.5-2.5 2.3-3.6-.3-.4-.6.1-.6 1z"/><path fill="#D7BC5E" stroke="#D7BC5E" stroke-width=".1" d="M216 22.2c.1 3.3 3.6 14.9 4.5 14.6.6-.2.9-.8.8-1.3C219.7 26.4 218 21 217 21c-.6 0-1 .6-1 1.2z"/><path fill="#D7BC51" stroke="#D7BC51" stroke-width=".1" d="M9.1 80.3c-.1 1-.5 1.5-1.1 1.2-.6-.4-.7.1-.3 1.1.6 1.5.7 1.5 1.5 0 .5-.9.7-2.2.4-2.9-.2-.7-.5-.4-.5.6z"/><path fill="#D7AE51" stroke="#D7AE51" stroke-width=".1" d="M188.6 88.5c-6.5 1.4-12 2.6-12.2 2.8-.2.1.2 3.4.9 7.3l1.2 7 14.1-2.4 14.1-2.5-1.6-7.3c-1.1-5.4-1.9-7.4-3.1-7.3-.8 0-6.8 1.1-13.4 2.4z"/><path fill="#D7AE43" stroke="#D7AE43" stroke-width=".1" d="M213.2 26.7c-1.6 2.6-2.2 3.1-1.9 1.5.4-1.8.3-2.1-.8-1.2-.9.8-1.5.8-2 0-1-1.7-2.4-.2-1.8 2 .3 1.1.1 2.1-.3 2.1-4.4.7-5.2.5-4.7-.8.3-.9 1.4-1.3 2.5-1 1.6.5 1.7.3.7-.9-.7-.9-1.6-1.1-2.3-.5-.6.4-1.9.7-2.9.6-.9-.2-1.5 0-1.2.5s.1 1-.4 1.2-.5 2.7.1 6.1c.9 5.3 1.2 5.8 3.2 5.4 1.1-.3 5.6-1.3 9.9-2.2 7.2-1.6 7.8-1.9 7.3-3.9-.3-1.1-.6-2.7-.6-3.4s-.4-1.1-.9-.8c-.5.4-.7-.2-.5-1.1.2-1 .1-3.1-.4-4.6l-.7-2.8zm10.6 30.8c-.2.3-4.6 1.4-9.7 2.4-5.1 1.1-9.5 2.2-9.8 2.5-.4.4 2 13.6 3.2 17.3.2.6 1.3.9 2.4.6 1.2-.3 1.8-1 1.4-1.7-.4-.6.1-.5 1 .3.9.7 1.7.9 1.7.4 0-.6 1.1-.8 2.5-.5 1.4.2 2.5 0 2.5-.5s1.4-.7 3.1-.5c2.1.3 3 .1 2.5-.6-.3-.6-.1-1.4.5-1.8.8-.4.9-.3.5.4-.5.8 0 1.2 1.2 1.2 1.9 0 1.9-.2-.3-9.5-1.2-5.2-2-9.7-1.7-10s.3-.5 0-.5c-.2 0-.7.2-1 .5z"/><path fill="#D7A136" stroke="#D7A136" stroke-width=".1" d="M175.7 16c-6 1.5-11 3-11.2 3.2-.7.7.8 5.8 1.7 5.8.5 0 .6-.5.3-1-.4-.7.3-.9 1.9-.6 1.4.3 2.6.1 2.6-.3 0-.5.9-1.1 2-1.4s2-.1 2 .4.4.9 1 .9c.5 0 .6-.8.3-1.8-.6-1.5-.5-1.6 1.2-.2 1 .8 1.6 1 1.2.3-.4-.6-.2-1.5.4-1.9.7-.4.9-.3.5.4-1.1 1.8.9 2.2 3.8.7 1.8-1 2.4-1 2-.2-.4.7.2.4 1.3-.6 1.2-1 2.3-1.5 2.5-1 .3.4.3.2.1-.5-.1-.8-.3-2.2-.3-3.3 0-2.4-.1-2.3-13.3 1.1zM10 82c0 1.5.7 2 2.5 2 2.4 0 2.4-.1.8-2-1-1.1-2.1-2-2.5-2-.5 0-.8.9-.8 2zm26.8 21.7c-.4 3.1-.2 3.3 2.7 3.5 10.4.6 10.2.7 8.9-2.6-.5-1.3-.9-1.4-2-.5-1.6 1.3-1.9-.2-.4-1.7.7-.7.6-1.1-.5-1.1-.8 0-1.5.6-1.5 1.4 0 1.6-1.6 1.7-2.6.1q-.75-1.05.6-.3c.8.5 1.1.3.8-.6-.2-.7-1.6-1.4-3-1.4-2.3-.2-2.7.3-3 3.2zm13.7 4.3c.3.5 1.8 1 3.2 1 3.2 0 2.8-.5-1-1.4-1.9-.4-2.6-.3-2.2.4z"/><path fill="#A16B00" stroke="#A16B00" stroke-width=".1" d="M68.2 25.5c0 1.6.2 2.2.5 1.2.2-.9.2-2.3 0-3-.3-.6-.5.1-.5 1.8z"/><path fill="#C9BC43" stroke="#C9BC43" stroke-width=".1" d="M13.1 33.5c-1.4 9.5-1.4 9.5.2 9.5 1 0 1.7-2.5 2.3-8.5.7-6.3.6-8.5-.2-8.5-.7 0-1.6 3.2-2.3 7.5z"/><path fill="#AE7900" stroke="#AE7900" stroke-width=".1" d="M66.2 100.5c0 1.6.2 2.2.5 1.2.2-.9.2-2.3 0-3-.3-.6-.5.1-.5 1.8z"/><path fill="#C9A11B" stroke="#C9A11B" stroke-width=".1" d="M42.8 21.5c-.3 5.1-.2 5.3 1.2 3.6 1.4-1.9 1.8-1.9 8-.6 8.2 1.8 8.5 1.8 7 0-.7-.8-1.6-1.3-2-1-1.3.8-5-2.6-5-4.6 0-1-.5-1.9-1.1-1.9s-.7.6-.2 1.2c.4.7-.5.5-2-.5-4.5-2.9-5.5-2.3-5.9 3.8zm-24.5 7.7c-.2 1.6.1 1.8 1 .9.7-.7.8-1.4.1-2.1-.6-.6-1-.2-1.1 1.2zm4.9 0c1.7 2.5 4.8 3.3 4.8 1.1 0-1.3-.2-1.3-1.7-.2-1.5 1.2-1.6 1.2-1.1-.3.4-1 .1-1.9-.8-2.2-2.5-1-2.7-.7-1.2 1.6zm5.9 2.5c-1 2.4-1 2.6.2 1 1.5-1.8 3.3-2.4 2.2-.8-.3.5-.1 1.3.5 1.6.6.4 1 .3.9-.2-.1-.4-.1-1.5 0-2.3.1-1.2.5-1.1 1.6.4 1.6 2.2 2 4 .6 3.2-.9-.6-3.5 4.4-2.6 5.2.3.4.8-.4 1.2-1.6.3-1.2 1-2.2 1.5-2.2.6 0 .8.9.5 1.9-.2 1-.1 2.5.4 3.2.5.8.8-1.2.8-4.9 0-3.4-.4-6-.9-5.7s-1.1.1-1.5-.5c-1.2-1.9-4.2-1-5.4 1.7z"/><path fill="#C9A10D" stroke="#C9A10D" stroke-width=".1" d="M52 19.3c0 1.7 2.2 3.8 4.3 4.1.8.1 2.2.8 3.1 1.5.8.7 3 1.4 4.7 1.4 2.7.2 3.2-.2 3.4-2.1.2-2.6-1.3-3.6-7-4.6-2.2-.4-5-1-6.2-1.3-1.6-.4-2.3-.1-2.3 1z"/><path fill="#D7A128" stroke="#D7A128" stroke-width=".1" d="M16.7 32c-.3.8-.8 3.6-1.1 6.2-.6 5.4-1.4 4.9 10.4 6.7 8.8 1.3 9.9 1.1 9.7-1.1-.1-1.4-.7-1.8-2.3-1.5s-2.1 0-1.7-1c.5-1.2-.8-1.8-3.1-1.4-.5.1-.6-.5-.2-1.4.4-1.2 0-1.4-1.9-1.1-1.5.3-2.4 0-2.2-.7.1-.7-.4-1.1-1-1-.7.2-1.3-.3-1.3-1.1 0-.9-.7-1.2-1.9-.9-1.3.3-2.1-.1-2.4-1.4-.3-1.4-.5-1.5-1-.3zm-4.2 34.4c-.2 1.2-.7 4.6-1 7.6-.5 4.7-.3 5.9 1.5 7.8 1.1 1.2 1.7 2.3 1.3 2.3-.4.1 3.5.7 8.7 1.4s9.6 1.3 9.6 1.2c.1-.1.5-4.5.9-9.8l.7-9.6-10.6-1.4c-10.5-1.5-10.7-1.5-11.1.5zM37 93.1c0 1.1.5 3 1.1 4.1.8 1.6.8 1.9-.1 1.3-.8-.5-1.1-.3-.8.6.3.8 1.5 1.4 2.8 1.4s2.5.6 2.8 1.4c.3.9 0 1.1-.8.6q-1.35-.75-.6.3c1 1.6 2.6 1.5 2.6-.1 0-.8.7-1.4 1.5-1.4 1.1 0 1.2.4.5 1.1-1.6 1.6-1.2 3 .5 1.6 1.2-1 1.5-.8 2 1.2.3 1.3 1.4 2.4 2.3 2.5.9 0 4.5.5 7.9 1l6.2 1 .6-4.1c.4-2.3.5-5.7.3-7.6l-.3-3.5-10-1.2c-5.5-.6-11.9-1.4-14.2-1.7-3.8-.5-4.3-.3-4.3 1.5zm-.8 10.4c0 1.6.2 2.2.5 1.2.2-.9.2-2.3 0-3-.3-.6-.5.1-.5 1.8z"/><path fill="#D7A143" stroke="#D7A143" stroke-width=".1" d="M187.6 18.9c-.4.6-1.1.9-1.6.6s-1.1-.1-1.4.4c-.4.5.5.8 1.9.6 1.4-.1 2.5.2 2.5.8s.3.8.6.4c.3-.3.2-1.3-.4-2.3-.6-1.1-1.1-1.3-1.6-.5zm-9.1 1.1c-.4.6-1.1.8-1.6.5-.5-.4-.9-.2-.9.4 0 .5.5 1.3 1 1.6.6.3 1 .1 1-.5s.4-.9.8-.6c.5.3.9-.1.9-.9 0-1.8-.3-1.9-1.2-.5zm-5.7 1.7c-1 .2-1.8.8-1.8 1.3 0 .4.9.6 2 .3s2-.9 2-1.4-.1-.8-.2-.8c-.2.1-1.1.3-2 .6zm37.5 1c-1.3.2-2.3.9-2.3 1.4 0 .6-.9.7-2.1.4-1.4-.5-1.9-.3-1.5.3s-.2.8-1.6.4c-1.6-.4-1.9-.2-1.3.9s.5 1.1-.4.3c-1.7-1.6-5.3-.5-4.9 1.4.2.8.9 1.7 1.7 2s1.1 0 .7-.6c-.3-.6.1-.9 1.1-.7 1 .1 2.3-.2 2.9-.6.7-.6 1.6-.4 2.3.5 1 1.2.9 1.4-.7.9-1.1-.3-2.2.1-2.5 1-.5 1.3.3 1.5 4.7.8.4 0 .6-1 .3-2.1-.6-2.2.8-3.7 1.8-2 .5.8 1.1.8 2 0 1.1-.9 1.2-.6.8 1.2s-.1 1.6 1.6-1c3.3-5.1 3-5.6-2.6-4.5zm-43.4 1.6c.7.7 1.4.8 2.1.1.6-.6.2-1-1.2-1.1-1.6-.2-1.8.1-.9 1z"/><path fill="#AE946B" stroke="#AE946B" stroke-width=".1" d="M190.5 42.7c.8 1.9 1.2 4 .8 4.7q-.45.9.3.3c.5-.5 1-2.4 1-4.2.1-2.5-.3-3.5-1.7-3.8-1.7-.5-1.8-.3-.4 3z"/><path fill="#864300" stroke="#864300" stroke-width=".1" d="M86.3 26.5c0 .8.6 1.5 1.3 1.5.8 0 1.1-.6.8-1.5-.4-.8-.9-1.5-1.3-1.5s-.8.7-.8 1.5zm5.1.9c-.9.9-.8 1.7.2 3.1 1.3 1.7 1.4 1.6 1.4-1.3 0-3.6-.1-3.6-1.6-1.8zM195.5 45c-.3.5-.3 2 0 3.3.8 2.9 1 4.2 2 9.3.6 3.5 1 4.1 2.7 3.6 2.1-.5 2.1-.8-.4-12.5-.9-4.4-2.8-6.1-4.3-3.7zm-47.9 48.6-22.9 4.5-2.3-2.2-2.3-2.1.2 3.4c.2 3.2.4 3.4 2.7 2.6 1.4-.5 13.3-2.9 26.5-5.4 21.7-4.1 28.2-5.6 22.9-5.3-1 .1-12.2 2.1-24.8 4.5zM95 105.3v7.4l5.3.6c2.8.3 8.7.9 13 1.3l7.8.7-.3-5.3c-.2-3.2-.8-5.5-1.5-5.8-.7-.2-1.3.4-1.3 1.3s.5 1.3 1 1c.6-.3 1-.1 1 .4 0 2.6-3.4.2-3.5-2.4-.1-.6-.7-.9-1.5-.7-1.1.3-1.1 0 0-1.3s1-1.5-.6-.9c-1 .4-2.4 1.1-3 1.5-1.1.9-2.4.2-2.4-1.4 0-.5.7-.7 1.5-.4.8.4 1.7.1 2.1-.4q.6-1.05-3-.6c-2 .3-3.6.2-3.6-.2s-1.2-.8-2.7-.8c-1.6 0-4-.4-5.5-.8l-2.8-.7z"/><g fill="#C9BCA1" stroke="#C9BCA1" stroke-width=".1"><path d="M137.7 33.6c-.4.5-1.3.9-2 1s-3 .5-5.2.9-4.1 1-4.3 1.5c-.2.4-1.1.6-2.1.3-1.1-.3-2.1.2-2.4 1.1-.4.9-.3 1.6.1 1.6s.5 2.1.3 4.7c-.3 4-.1 4.5 1.4 4 .9-.4 2.4-.7 3.3-.7 1.3 0 1.7-.9 1.6-3.9-.1-2.1-.5-4.5-.9-5.2-.6-1.1-.5-1.2.6-.2 1.7 1.7 2.9 1.6 2.9-.1 0-.8.5-1.8 1.2-2.2q1.05-.75.3.6t.3.6c.7-.4 2.2-.9 3.3-1.1 2.7-.5 3.2-1 2.7-2.5-.2-.6-.7-.8-1.1-.4zm37.5 9.1c-2.1.4-2.3.9-1.8 3.8.6 2.8.3 3.5-1.4 4-1.1.3-2 1.3-2 2.1 0 1.4-1 1.8-4.2 1.5-.9-.1-1.9.3-2.3.9-.3.6-1.1.8-1.6.5-.5-.4-1.4-.3-2 .1-.7.4-2.8.8-4.7 1-4.4.4-6 1.8-4.2 3.8.7.9 1.7 1.3 2.4 1 .6-.3.3.1-.7.9-2.6 2.1-.1 3.9 3.9 2.8 2.2-.7 2.4-1 .9-1.1-1.1-.1-2.4-.2-2.8-.1-.5.1-.6-.3-.2-.9s1.5-.8 2.4-.5c2.1.6 4.5-1.8 3.8-3.7q-.6-1.2-1.2.9c-.4 1.3-1.2 2-1.7 1.7-1-.6 1.9-4.4 3.4-4.4.4 0 .8 1.2.8 2.6s.4 2.3 1 1.9c.6-.3 1-.2 1 .4 0 .5-.3 1.1-.7 1.4-.5.2-.2.2.5 0 .8-.1 2.2-.3 3.3-.3 1 0 1.9-.7 1.9-1.5s.5-1.5 1-1.5c.6 0 1 .4 1 1 0 .5.6 1 1.4 1q1.35 0 .9-2.1c-.3-1.1-1.1-1.8-1.8-1.5-.8.3-1.6-.1-1.8-.9-.8-2 .4-2.6 2-.9 1.4 1.4 3.8 1 2.9-.5-.3-.4.1-.8.8-.8.8 0 1.2.6.9 1.3-.2.6 0 1.5.6 1.9.6.3 1.4-.1 1.7-1 .5-1.2.9-1.3 1.4-.5 1.2 1.9 2.2-5.7 1.1-7.9-.6-1-.8-2.1-.5-2.4s.3-1.5-.1-2.6c-.6-2.1-1-2.2-5.3-1.4z"/><path d="M175 58.8c0 1.2 1.9 2.6 2.6 1.9.2-.2-.2-1-1.1-1.7-.9-.8-1.5-.8-1.5-.2zm-33.7 10.9c-1.5.5-1.7 2.3-.4 2.3.5 0 1.1-.7 1.5-1.5.3-.8.4-1.5.3-1.4-.1 0-.8.3-1.4.6z"/></g><path fill="#C9BCAE" stroke="#C9BCAE" stroke-width=".1" d="m121.2 44.8-.2 5.3 3.8-.7c4.9-.9 5.8-1.8 1-1.1l-3.7.6-.4-4.7-.3-4.7zm56.3-3.7c-1.6.5-3.6.7-4.2.4-.7-.2-1.3 0-1.3.5 0 1.4 4 1.1 7.5-.5 3.4-1.5 2.4-1.8-2-.4zM47.3 52.5c0 2.7.2 3.8.4 2.2.2-1.5.2-3.7 0-5-.2-1.2-.4 0-.4 2.8zm81.7 3.4c0 1.7.4 3.2.8 3.5.4.2.6-1.1.4-3-.5-4.2-1.2-4.5-1.2-.5zm52.1.1c-.1 1.8-.4 2.1-1 1.2-.7-1.1-.9-1-1.5.3-.3.9-1.1 1.3-1.7 1-.6-.4-.8-1.3-.6-1.9.3-.7-.1-1.3-.9-1.3-.7 0-1.1.4-.8.8.9 1.5-1.5 1.9-2.9.5-1.6-1.7-2.8-1.1-2 .9.2.8 1.1 1.1 1.9.8s1.4.1 1.4 1.1c0 .9.7 1.6 1.5 1.6 1 0 1.2-.6.8-1.8-.6-1.4-.4-1.5.8-.5.9.7 2.5.9 4 .5 2.1-.6 2.4-1.1 1.8-3.2l-.7-2.5zm-22.5 2.9c-1 1.1-1.3 2.2-.8 2.5s1.3-.4 1.7-1.7q.6-2.1 1.2-.9c.7 1.9-1.7 4.3-3.8 3.7-.9-.3-2-.2-2.2.3-.7 1 4.8 1.5 7.4.7 1.1-.4 1.9-1.1 1.9-1.6 0-.6-.4-.7-1-.4-.6.4-1-.5-1-1.9 0-3.1-1.1-3.3-3.4-.7zm-8.4 4.1.3 3.5-13.7 2.9C125 71.9 123 72.6 123 74.2c0 1.1.3 1.7.8 1.5.4-.3.5 1.7.4 4.4-.2 2.8-.1 6 .2 7.3l.6 2.3 13.6-2.9c13-2.6 16.7-2.9 13.4-.8-.9.6-1 1-.3 1 1.7 0 2.6-1.9 1.5-3.3-.5-.7-1.4-4.6-2-8.7-.8-6.2-.7-7.7.5-8.7 1-.8 1.1-1.3.3-1.8s-.7-1 .2-1.8c.7-.7 1.1-1.1.9-1-.2.2-1.1-.3-1.9-.9-1.2-1-1.3-.7-1 2.2zm-7.8 7.5c-.7 1.6-2.4 2.1-2.4.6 0-.8.7-1.3 2.7-2 .1-.1 0 .6-.3 1.4z"/><path fill="#AEA186" stroke="#AEA186" stroke-width=".1" d="M52.2 37.5c0 1.6.2 2.2.5 1.2.2-.9.2-2.3 0-3-.3-.6-.5.1-.5 1.8zm36.1 7c0 2.2.2 3 .4 1.7.2-1.2.2-3 0-4-.3-.9-.5.1-.4 2.3zM100 57.4c0 9.4 1.1 14.8 3.2 15.4 2.4.6 2.3 3.2-.2 3.2-1.1 0-2 .5-2 1.1 0 .7-2 .9-6.2.5-7.9-.7-3.9.9 4.5 1.9 4.8.5 5.7 1 5.7 2.6 0 1.5-.5 1.8-2.2 1.4-2-.4-17.2-2.5-18.4-2.5-.2 0-.4-1.4-.4-3 0-2.3.4-3 2-3 1.1 0 2-.5 2-1 0-.7 2.2-.9 6.3-.6 4.7.4 5.4.3 2.7-.3-1.9-.5-5.6-1.2-8.2-1.6-3-.4-4.8-1.1-4.8-1.9s-1.6-1.7-3.5-2c-3.5-.7-4.6-2-2.2-2.9.9-.4.9-.6-.1-.6-.7-.1-2 .6-2.8 1.4-1.4 1.3-1.4 1.5 0 1.5.9 0 1.6.4 1.6 1 0 .5.9 1 2 1 1.4 0 2 .7 2 2.1 0 1.6-.5 2-2 1.6-1.8-.5-2 0-2 5.4 0 6.9-2 6 20 8.9 8.5 1.1 16.4 2.1 17.5 2.3 2 .3 2.1 0 1.4-5.7-.5-3.4-.9-8.2-1-10.8s-.6-4.5-1.1-4.2c-.4.3-.8 0-.8-.5 0-.6-.6-1.1-1.4-1.1s-1.8-.5-2.2-1.2-.3-.8.4-.4 1.2.5 1.2.2-1.2-1.3-2.7-2.1c-1.6-.9-2-1.4-1-1.1.9.3 1.7.1 1.7-.4 0-.6-.9-1-2.1-1-1.5 0-1.9-.5-1.5-1.5.3-.8.2-1.4-.2-1.4-3.1.5-4-.3-3.8-3.1.1-1.7-.1-3-.6-3-.4 0-.8 2.4-.8 5.4z"/><path fill="#A1946B" stroke="#A1946B" stroke-width=".1" d="M186.6 25.6c.3 2.2.9 4.3 1.3 4.9.3.5.6 2.2.7 3.7.2 3.6 1.1 5.8 2.4 5.8.5 0 1-1.1 1-2.5s-.4-2.5-.9-2.5-.7-.8-.5-1.8c.6-2.4-1.9-10.5-3.4-11-1-.3-1.2.5-.6 3.4zM80.5 43c-.3.5.1 1 .9 1 .9 0 1.6-.5 1.6-1 0-.6-.4-1-.9-1-.6 0-1.3.4-1.6 1zm10.5.9c0 1.1.4 2.2.9 2.5.4.3.6-.6.3-1.9-.5-3-1.2-3.3-1.2-.6zm14.9 3.3c.4 2.8.6 2.9.9.9.2-1.3 0-2.7-.5-3.2-.6-.6-.7.3-.4 2.3zM71 60c0 .5.4 1 .9 1 .6 0 1.3-.5 1.6-1 .3-.6-.1-1-.9-1-.9 0-1.6.4-1.6 1zm44.3 3.5c0 2.2.2 3 .4 1.7.2-1.2.2-3 0-4-.3-.9-.5.1-.4 2.3zM65 69c-1.3.8-1.3 1 .2 1 .9 0 2-.5 2.3-1 .8-1.3-.5-1.3-2.5 0zm7 1c-1.3.8-1.3 1 .2 1 .9 0 2-.5 2.3-1 .8-1.3-.5-1.3-2.5 0zm15.5 0c-1.3.5-1.4.9-.5.9.8 0 2.4-.4 3.5-.9 1.3-.5 1.4-.9.5-.9-.8 0-2.4.4-3.5.9zm6.5 1c-2 .6-2.1.8-.5.8 1.1 0 2.9-.3 4-.8 2.5-1.1-.1-1.1-3.5 0zm-5.2 4.3c-1 .8-1.3 1.8-.9 2.6.6.9 1 .7 1.3-.7.4-1.3 1.6-2.2 3.4-2.5 2.6-.4 2.7-.4.4-.5-1.4-.1-3.3.4-4.2 1.1zm27.5 3.2c0 2.7.2 3.8.4 2.2.2-1.5.2-3.7 0-5-.2-1.2-.4 0-.4 2.8zm-18-2.8c.9.2 1.4.9 1.1 1.5-.4.7-.2.8.4.4 2-1.2 1.3-2.6-1-2.5-1.8.1-1.9.2-.5.6zm-7 4c.9.2 2.3.2 3 0 .6-.3-.1-.5-1.8-.5-1.6 0-2.2.2-1.2.5zm2 2c.9.2 2.3.2 3 0 .6-.3-.1-.5-1.8-.5-1.6 0-2.2.2-1.2.5zm8.7.3-2.5.8 2.8.1c1.5.1 2.7-.4 2.7-.9 0-.6-.1-1-.2-.9-.2.1-1.4.5-2.8.9zm17.2 2c0 1.9.2 2.7.5 1.7.2-.9.2-2.5 0-3.5-.3-.9-.5-.1-.5 1.8z"/><path fill="#BC7900" stroke="#BC7900" stroke-width=".1" d="M42 29c0 .5-.9 1-2 1-1.6 0-2 .7-2 3.2 0 1.8-.3 5.6-.6 8.4-.6 4.6-.4 5.2 1.4 5.6 1.8.5 2.2 0 2.6-3.6.8-5.9 1.3-15.6.9-15.6-.2 0-.3.4-.3 1zm-7.4 47.4c-.9 13-.7 13.2 16.2 15.2 7 .8 13.4 1.9 14.3 2.4 1.3.7 1.6.5 1.2-.9-.4-1.5-2.5-2-12.8-3.1-6.7-.7-12.8-1.6-13.5-2-1-.6-1.2-3.3-.8-10.4.3-5.3.2-9.6-.3-9.6-.4 0-1.4-.2-2.2-.5-1.1-.5-1.5 1.3-2.1 8.9z"/><g fill="#C9C9BC" stroke="#C9C9BC" stroke-width=".1"><path d="M180.4 24.6c.5 1.3.4 1.4-.7.5-1.8-1.4-7.7-.3-8.4 1.6-.4 1.1-.8 1.2-1.3.2-.5-.7-1.5-.9-2.6-.4-2.5 1.1-3 1.2-5.6 1.5-2 .2-2 .3-.4.7 1.5.4 1.6.7.5 1.4-.9.6-.2.7 1.9.3 1.9-.4 3.2-.2 3.2.4 0 .5.8.8 1.9.5 1.9-.5 3 1.8 3.1 6.2.1 4.3 1.2 4.7 8.7 2.9l7-1.7-1.3-6.1c-1.8-8.4-2.3-9.6-4.6-9.6-1.5 0-1.8.5-1.4 1.6zm-25.9 5.2c-1.1.2-2.7.6-3.5.9-1.8.7-2.8.9-5.3 1.1-1 .1-1.6.6-1.3 1 .3.5-.4.8-1.6.8-1.2-.1-2.3.4-2.5 1-.2.7.8.9 2.7.6 1.6-.2 3-.8 3-1.2 0-.5.9-.6 2-.3s2 .1 2-.3c0-.5 1.6-1 3.5-1.1s4.2-.6 5.1-1.1c1.5-.8 1.5-.9-.2-1.4-1.1-.2-2.8-.2-3.9 0z"/><path d="M160 35c-1.9.4-2.7.8-1.7.9 3.6.2 1.3 3.5-3.3 4.8-4.5 1.3-3.5 1.2 5.8-.4 2.5-.4 3.2-.2 3.2 1.1 0 .8-1 1.8-2.2 2.1-23.1 5.3-22 5.1-21.6 2.7.1-.9-.1-2.3-.5-3-1.1-1.6 0-3.2 2-3.2.9 0 1.4-.2 1.1-.5s-2.7-.1-5.3.6l-4.7 1.2.6 4.5c.3 2.5.6 5 .6 5.7s1.5 1.5 3.2 1.9c4.1.8 26-4.1 27.1-6 .4-.8 1.5-1.4 2.3-1.4 1.2 0 1.4-.7 1-3-.3-1.7-.9-4.4-1.2-6-.6-3.1-.8-3.2-6.4-2zm.8 11.7c-.4 2.4-19.7 6.7-20.5 4.6-.7-1.9-1-1.7 8.7-4 11-2.7 12.2-2.7 11.8-.6z"/><path d="M118 40.4c0 1.3.6 2.7 1.3 2.9.6.3.8.6.2.6-1 .1-.4 27.5.6 28.6.3.2 7.3-1 15.5-2.8l14.9-3.3-.3-2.9c-.5-4-1.1-4.4-2.9-1.8-.9 1.3-2.2 2.3-2.9 2.3-.8 0-1.4.7-1.4 1.5 0 .9-.9 1.5-2.5 1.5-2.1 0-2.5-.5-2.5-3 0-2.2-.5-3-1.8-3-1 0-2.2-.3-2.6-.7s-1.5-.8-2.4-.8c-1.3 0-1.8-1.1-2-5.3l-.3-5.4-3.8.7-3.8.6-.7-6c-.7-5.9-2.6-8.6-2.6-3.7zM43.6 57.6c-1 2.5-.7 3.4.9 3.4.8 0 1.5-.9 1.5-1.9 0-2.6-1.6-3.5-2.4-1.5zm77.8 18.1c-.9.3-.8 15.1.1 16.1.5.6 29.3-5.1 30.7-6 2.9-1.7-.6-1.4-13.4 1.1-7.6 1.6-14 2.6-14.3 2.3s-.5-3.4-.5-6.8c0-6.2-.5-7.5-2.6-6.7z"/></g><path fill="#C9BCBC" stroke="#C9BCBC" stroke-width=".1" d="M158 29c-.8.5-.5.9.8 1.2 1.1.3 2.5.2 3.2-.2.8-.5.5-.9-.8-1.2-1.1-.3-2.5-.2-3.2.2zm-37.9 11.7c-.1 1.2-.7 2.4-1.3 2.6q-1.5.6 0 .6c1.5.1 2.6-2.3 1.9-4.1-.3-.7-.6-.3-.6.9zM44 45.6c0 1.7.4 2.3 1.3 1.8.9-.6.9-.4-.1.8-.8 1-1 2.6-.6 4.4.5 1.9.4 2.5-.5 2-.7-.5-1.1.1-1 1.6 0 1.3.3 1.7.6 1 .7-1.7 2.3-.5 2.3 1.8 0 1-.8 2.1-1.7 2.3-1.3.3-1.2.5.5.6 2.1.1 2.3-.3 2.1-5.2 0-2.8.2-7.1.6-9.5.7-3.8.6-4.2-1.4-4.2-1.6 0-2.1.6-2.1 2.6z"/><g fill="#BCAE94" stroke="#BCAE94" stroke-width=".1"><path d="M50.1 28.1c.1 1.9-.2 4.1-.5 5-.4 1-.3 2 .3 2.4.7.4.8 0 .4-1.1q-.75-1.8.6-.9c.8.4 1.6.3 2-.4.5-.8 2.3-.8 6.7 0 8 1.4 9.4 1.9 9.4 3.1 0 .6-2.2.8-6.2.4-5.1-.5-5.9-.4-4 .6 1.2.6 2.2 1.5 2.2 2 0 .4-1 .8-2.2.9-1.8.1-1.5.3 1 1 1.8.5 3.1 1.3 2.8 1.7s.4.9 1.5.9c1 .1 1.9-.3 1.9-.9s.9-.1 1.9 1.1c1.2 1.4 2.2 1.8 2.6 1.1s1.1-.5 2.1.5c2 2 2.9 1.9 3.1-.4.1-1.1-.6-2.1-1.9-2.4-1.2-.4-1.7-1-1.3-1.7s1.5-1 2.4-.7c1.3.3 1.6-.5 1.6-4.8v-5.2l-12-2.3c-6.6-1.3-12.6-2.5-13.3-2.8-.9-.3-1.2.5-1.1 2.9zm14.1 12.4c.4 2 .2 2.3-.8 1.4-.7-.6-1-1.7-.7-2.5.7-2 1-1.8 1.5 1.1zM152 34c-5.8 1.6-12.1 2.9-14 2.9-2.8.1-3.1.4-1.8 1.1 2 1.2 23.5-3.5 25.8-5.6.8-.8 1.2-1.3 1-1.3-.3.1-5.2 1.4-11 2.9zm18.1-.3c0 .7-.8 1.3-1.7 1.3-1 0-1.4.6-1 1.7.3 1 .8 3.5 1.2 5.6.6 3.3.4 3.9-1.5 4.4-1.1.3-2.1 1.1-2.1 1.8 0 1.7-24.5 6.8-28.7 5.9-2.9-.6-3.3-1-3.3-3.9 0-4.4-.9-6.5-2.7-6.5-1.2 0-1.4.7-.9 3.1.3 1.7.6 4.6.6 6.4 0 2.8.3 3.2 2 2.8 1.1-.3 2-.1 2 .5s.9.8 2 .5 2-.1 2 .5c0 .5 1.4 1.2 3.2 1.6 2.3.5 3.4.2 4.1-.9.4-.8 2-1.5 3.5-1.6 4.6-.1 18.8-3.5 17.2-4.2-1.3-.5-1.3-.7 0-1.6 2-1.4 2.8-1.4 3.3.1.2.7.2.3 0-1-.3-1.7.2-2.5 1.7-2.9 1.8-.5 2-1 1.4-3.7-.4-1.7-1.1-4.9-1.5-7.1-.3-2.2-.7-3.4-.8-2.8z"/><path d="M149.2 39.2c-4.6 1.1-8.1 2.2-7.8 2.5.8.8 17.6-3 17.6-3.9 0-1 .3-1-9.8 1.4zm35.6 1c-4.4 1.2-4.5 1.5-2.3 11.9.9 4 1.4 7.4 1.2 7.5-.2.2-7.5 1.9-16.3 3.7-18 3.8-16.4 2.3-14.9 13.9.5 4.6 1 5.8 2.4 5.8 1 0 9.6-1.6 19.2-3.5 9.6-2 18.3-3.6 19.4-3.7 2-.2 2-.6-1.6-17.7-2-9.7-3.5-17.9-3.2-18.4.2-.4.3-.7.1-.6s-2 .6-4 1.1zm-33.3 2.9c-9.6 2.4-10.9 2.8-10.3 3.4s18.7-3.4 20.8-4.6c2.5-1.4-1.5-.9-10.5 1.2zm-2 5.4c-4.9 1.2-8.3 2.3-7.5 2.4 2.7.2 18-3.3 18-4.1 0-1 0-1-10.5 1.7zM81 50.2c0 .4.9.8 2 .8s2 .7 2 1.5c0 1.7-.2 1.8-5.2.6-2.2-.5-3.6-.5-3.2 0 .3.5 1.6.9 3 .9 1.3 0 2.4.4 2.4.9s1.6.8 3.5.6c2.8-.1 3.3.1 2.4 1.2-1.4 1.6-2.3 1.7-1.3 0 .4-.6.3-.8-.1-.4-.5.4-1 1.4-1.1 2.1-.1 1 .6 1.2 3.2.6 2.4-.6 3.7-.4 4.5.6.9 1.1.9 1.4 0 1.4-.7 0-.9.4-.6 1 .3.5.1 1-.6 1s-1 .3-.7.6c1.1 1 4.9-1.6 4.2-2.9-.4-.7.1-.4 1.1.5 1.4 1.3 1.6 2 .7 3-.8 1.1-.6 1.7.9 2.6 1.8 1.2 1.9.9 1.9-6.7v-7.8l-4.2-.8C85.9 49.9 81 49.4 81 50.2zm5 12.3c.7.9 1.5 1.3 1.7 1.1.7-.7-.7-2.6-1.9-2.6-.6 0-.6.6.2 1.5zm-8.5 3.9c-1.1.7-2.9 1.6-4 1.9-1.5.4-1.4.5.8.6 1.5 0 2.7-.3 2.7-.7 0-.5 1-1.4 2.3-2 1.2-.6 1.7-1.1 1.2-1.1-.6-.1-1.9.5-3 1.3zm4.8 1.3c.9.2 2.3.2 3 0 .6-.3-.1-.5-1.8-.5-1.6 0-2.2.2-1.2.5zm9.2.3-3 .8 2.7.1c1.5 0 3-.4 3.3-.9.3-.6.5-.9.3-.9-.2.1-1.6.5-3.3.9z"/></g><g fill="#BCBCA1" stroke="#BCBCA1" stroke-width=".1"><path d="M48.3 37.5c0 3.3.2 4.5.4 2.7s.2-4.5 0-6-.4 0-.4 3.3zm83-.3c-.3 2.9-1 3.3-3 1.7-1.7-1.2-1.7-1.2-.1.5 1.7 1.9 3.8 1.4 3.8-.9 0-.8.6-1.2 1.4-.9s1.7 0 2.2-.7c.4-.8.3-1-.5-.5-.6.4-1.7.3-2.4-.3-1-.7-1.3-.5-1.4 1.1zm-75 7.5c.9.2 2.3.2 3 0 .6-.3-.1-.5-1.8-.5-1.6 0-2.2.2-1.2.5zM76.2 56c0 1.9.2 2.7.5 1.7.2-.9.2-2.5 0-3.5-.3-.9-.5-.1-.5 1.8zM49 64c-1.3.8-1.3 1.1.3 2.7 1 1.1 1.7 1.3 1.7.5 0-.7-.5-1.2-1.1-1.2-.5 0-.7-.5-.4-1 .8-1.4 5.5-1.3 5.5.1 0 .6-.6.9-1.3.6-1.1-.4-1.3.5-1 3.6l.4 4.1-2-2.5c-1.1-1.3-2-1.9-2.1-1.4 0 .6.5 1.6 1 2.1.7.7.6 1.1-.4 1.1-.8 0-1.3-.3-1.1-.7s-.2-1.6-1-2.6c-1.3-1.7-1.4-1.3-1.5 4.7v6.5l13.3 1.7c16.2 2.1 15.2 2.1 15.4-.4.2-1.7-.3-2-3-1.7-2.1.2-3.1.8-2.9 1.7.2 1.1 0 1.2-1 .4-.7-.6-2.3-.9-3.5-.7s-2.5-.1-2.8-.6c-.3-.6.1-.7 1-.4 1.3.5 1.4.2.6-1.9-.7-1.7-.6-2.8.2-3.7.9-1 .9-1.1 0-.6-.7.4-1.3.2-1.3-.4s-.5-.8-1-.5c-.6.4-1.7.1-2.5-.5-1.2-1-1.6-.9-2.1.4-.3.9-1.3 1.6-2.1 1.6-1.2 0-1.3-.3-.4-1.3.6-.8.9-1.6.6-1.8-.2-.3.6-.5 1.8-.5s2.5.5 2.9 1c.5.7.8.6.8-.2 0-.7.5-1 1.2-.6.7.5.8.3.3-.5-.4-.7-1.7-1.1-3-.9-2.6.5-5-2.3-3.3-4 2.5-2.5-2.8-4.4-6.2-2.2zm24.5 18c-.3.5-1.4 1-2.3 1-1.5 0-1.5-.2-.2-1 2-1.3 3.3-1.3 2.5 0z"/><path d="M69.8 75.7c-.7 2.5-.1 3.3 2.1 3.3 1.1 0 1.2-.3.5-.8-.7-.4-1.4-1.6-1.6-2.7-.4-1.9-.4-1.9-1 .2zm-5.6 2.2c.5.9 1.8 1.7 2.9 1.7 2.2 0 .7-2.1-2.1-2.9-1.5-.4-1.7-.2-.8 1.2z"/></g><g fill="#BCBCAE" stroke="#BCBCAE" stroke-width=".1"><path d="M45 30.4c0 2.9-.3 6.7-.6 8.3-.5 2.5-.2 3.1 1.6 3.6 2.2.6 2.3.9 1.8 9.8-.4 6.1-1 9.4-1.9 10-1 .6-.9.8.6.7 1.1 0 5.5.3 9.8.7 5.7.6 7.7.5 7.7-.4 0-1.1 2.5-1 9.8.5 1.2.2 2.2 0 2.2-.5s-3.6-1.4-8-2.1c-5.9-.9-8-1.6-8-2.8s1-1.4 5.7-.8c3.1.4 6.7.9 8 1.2 2 .6 2.3.3 2.3-2.6 0-2.3-.5-3.3-2-3.7-2.7-.7-2.5-3.3.3-3.3 4.4-.1-.6-1.8-8.8-3-4.4-.6-10.2-1.6-12.9-2.2l-4.9-1.1.7-8.8C49 25.4 49 25 47 25c-1.8 0-2 .6-2 5.4zm32 5.5v4.8l4 .7c4.2.7 5.8 3.6 1.9 3.6-3.6 0-1.9 3.4 1.9 3.8 3.2.3 3.2.3 3.2-4.2 0-3.7.3-4.4 1.6-3.9.9.3 2 0 2.4-.7.6-.9 1.9-1 5.9-.1 6.9 1.5 10.1 4.4 10.1 9.2 0 3.3.3 3.7 3 4.1 2.8.4 3 .2 3-2.6 0-1.7-.3-5.4-.6-8.2l-.6-5-16.7-3.2C86.9 32.4 78.9 31 78.2 31c-.8 0-1.2 1.7-1.2 4.9z"/><path d="M93 43.9c0 1.2.6 2.1 1.3 2.1.6 0 2.9.3 5 .6 2.9.5 3.7.3 3.7-.9 0-.9-1.3-1.8-3.2-2.2-1.8-.4-4.1-.9-5-1.1-1.3-.4-1.8 0-1.8 1.5zm.5 5.8c1.3 1.4 9.5 2.4 9.5 1.2 0-.5-.8-.9-1.9-.9-1 0-3.4-.3-5.2-.6-2.3-.5-3.1-.3-2.4.3zm24.7 4.8c0 1.6.2 2.2.5 1.2.2-.9.2-2.3 0-3-.3-.6-.5.1-.5 1.8zM42.5 65.2c-.2.7-.5 4.8-.8 9-.5 8.8-.2 9.1 6.8 8.3 2.3-.3 3.5-.2 2.7.3-.7.5 3.3 1.4 10 2.1 6.2.7 12.4 1.5 13.7 1.8 1.7.4 2.2.2 1.9-.8-.4-1.3-15.4-4-20.3-3.7-1.1 0-2.8-.2-3.8-.7-.9-.4-3-.5-4.5-.3l-2.7.4.6-8.1c.4-4.4.4-8.3.2-8.8-.7-1.2-3.3-.8-3.8.5zm78 8.8c-.3.5.1 1 .9 1 .9 0 1.6-.5 1.6-1 0-.6-.4-1-.9-1-.6 0-1.3.4-1.6 1zm71 3c-.4.6-1 .8-1.5.5-.8-.5-25.2 4-28 5.2-.8.3-2.2.5-3.2.4-.9-.1-1.9.3-2.3.9-.3.6-1.1.8-1.6.5-.5-.4-.9-.1-.9.5 0 1.1 6 .5 9-1 .8-.4 2.1-.5 2.8-.3.6.3 1.2 0 1.2-.6 0-.5 1.2-.8 2.6-.5 1.7.3 2.3.1 1.9-.7-.5-.8.2-.9 2.4-.4 1.7.4 3.1.3 3.1-.2 0-.4 2.1-.9 4.7-1s4.9-.7 5.1-1.3c.2-.5.8-.8 1.3-.5 1.3.8 7.9-.5 7.9-1.6 0-1.2-3.7-1.1-4.5.1z"/></g><path fill="#BCAEA1" stroke="#BCAEA1" stroke-width=".1" d="M49.2 33.9c.1 5.7.5 9 1.2 8.8 1.2-.4 1.8-7.7.7-9.2-.4-.5-.8-2.6-1-4.4-.4-7.3-1-4-.9 4.8zm27.2-2.5c-.3.8-.4 2.5-.2 3.8.3 1.7.5 1.3.9-1.5.5-3.8.2-4.7-.7-2.3zm-13.7 7.9c-.3.8-.1 1.9.5 2.5s.6 1.2-.3 1.7c-.7.5-1 .4-.6-.2.7-1.1-1.4-2.3-3.9-2.3-3 0 2.4 3.7 6.3 4.3 3.2.6 4.2.3 4.7-.9.9-2.4.7-3.6-.4-2.9-.6.4-.8 1.1-.5 1.6.4.5.2.9-.4.9-.5 0-1.2-.6-1.4-1.3q-.6-1.5-.6 0c-.2 2.4-1.7 1.3-1.9-1.4-.3-3.2-.8-3.9-1.5-2zm7.8 5.7c-.3.6.1 1.3 1 1.6 2.1.9 2.6.2 1-1.3-.9-.8-1.6-.9-2-.3zm36.7 5c0 1.9.2 2.7.5 1.7.2-.9.2-2.5 0-3.5-.3-.9-.5-.1-.5 1.8zM77 57.4c0 2.6.5 3.6 2 4.1 1.1.4 2 1.5 2 2.6 0 1.6-.5 1.9-2.2 1.4-1.7-.4-1.9-.3-.8.3 1.3.8 17.5 3.3 21.1 3.2.9-.1.7-.6-.8-1.9-1.6-1.4-1.9-2.1-1-3 .8-.8.7-1.5-.7-2.9-1.1-.9-1.6-1.2-1.2-.5.7 1.3-3.1 3.9-4.2 2.9-.3-.3 0-.6.7-.6s.9-.5.6-1c-.3-.6-.1-1 .6-1 .9 0 .9-.3 0-1.4-.8-1-2.1-1.2-4.5-.6-2.4.5-3.3.4-3.3-.6 0-.7.4-1.1.8-.9.3.3 1.2-.1 1.8-.9.9-1 .4-1.2-2.4-1.1-1.9.2-3.5-.1-3.5-.6s-1.1-.9-2.5-.9c-2.2 0-2.5.4-2.5 3.4zm10.5 4.7c1.1 1.7-.1 2.1-1.5.4-.8-.9-.8-1.5-.2-1.5s1.4.5 1.7 1.1zm-45.2 0c.2 2 .6 2.4 2.3 2.1 2.1-.4 2.7.9 3.6 7.4.1.6.7 1.1 1.5 1.1.9 0 1-.4.3-1.1-.5-.5-1-1.5-1-2 .1-.6 1 0 2.1 1.3l2 2.5-.4-4.1c-.3-3.1-.1-4 1-3.6.7.3 1.3 0 1.3-.5 0-.6-2.5-1.4-5.5-1.7-3.5-.5-5.9-1.3-6.4-2.3-.7-1.3-.9-1.1-.8.9zm7.2 2.9c-.3.5-.1 1 .4 1 .6 0 1.1.5 1.1 1.1 0 .8-.5.8-1.5-.1-1.7-1.4-2-3-.4-3 .5 0 .7.4.4 1zm5.7 1c-.7 1.1-.6 2.1.2 3.2 1.5 2.1 3.2 1.1 3.8-2.2.3-1.9 0-2.6-1.3-2.6-.9 0-2.1.7-2.7 1.6zM67 67c1.4.4 4.1.8 6 .8h3.5l-4-.9c-2.2-.4-4.9-.8-6-.7-1.6 0-1.5.2.5.8zm-6.9 4.7c-.6 1-1.1 1.3-1.1.7 0-.7-1.1-1.1-2.4-1-1.3 0-2.2.3-2 .5s-.1 1-.7 1.8c-.9 1-.8 1.3.4 1.3.8 0 1.8-.7 2.1-1.6.5-1.3.9-1.4 2.1-.4.8.6 1.9.9 2.5.5.5-.3 1-.1 1 .5s.6.8 1.3.4c.9-.5.9-.4 0 .6-.8.9-.9 2-.2 3.7.8 2.1.7 2.4-.6 1.9-.9-.3-1.3-.2-1 .4.3.5 1.6.8 2.8.6s2.8.1 3.5.7c1 .8 1.2.7 1-.4-.2-.9.8-1.5 3-1.7 1.9-.2 3.2.1 3.2.8 0 .6-.4.8-1 .5-.5-.3-1.8-.1-2.7.5-1.7 1-1.6 1 .2.8 1.1-.1 2.5.1 3.2.5.9.6 1.2-.9 1.2-5.4l-.1-6.1-2.9.4c-1.6.3-2.9.1-2.9-.3s-1.3-.7-3-.7c-1.8.1-2.7.5-2.4 1.2.3.6-.1.3-.9-.7-.8-.9-1.7-1.7-2-1.7s-1.1.8-1.6 1.7zm12.3 6.5c.7.5.6.8-.5.8-2.2 0-2.8-.8-2.1-3.3.6-2.1.6-2.1 1-.2.2 1.1.9 2.3 1.6 2.7zm-4.5.2c.7.8.4 1.2-.8 1.2-1.1 0-2.4-.8-2.9-1.7-.9-1.4-.7-1.6.8-1.2 1.1.3 2.4 1 2.9 1.7zM77 86c0 .5.1 1 .3 1 .1 0 9 1.1 19.7 2.5s19.7 2.5 20 2.5c.2 0-.1-.5-.7-1.1s-9.3-2.1-19.4-3.5C75.6 84.6 77 84.7 77 86z"/><path fill="#AE9479" stroke="#AE9479" stroke-width=".1" d="M191.1 44.9c-.8.5-.9 1.1-.3 1.5.5.3 1 2.1 1 3.8 0 2.8 3.3 19.7 4.8 25 .8 2.8 3.5 2.3 2.9-.5-.9-4-3.5-16.1-4.7-22-.6-3.1-1.6-5.7-2.1-5.7s-.7-.7-.3-1.5c.6-1.7.6-1.8-1.3-.6zm-51.4 15.8c-.9.9-.9 5.3.1 5.3.4 0 1.8-1.2 3.1-2.5 1.5-1.7 1.8-2.3.7-1.9-.9.3-1.6.1-1.6-.5 0-1.2-1.3-1.5-2.3-.4z"/><path fill="#794300" stroke="#794300" stroke-width=".1" d="m93.2 29.1.3 3.4 8.5 1.6c4.7.9 9.8 1.9 11.3 2.3 2.5.6 2.7.4 2.7-2.8v-3.4l-8.7-1.6c-4.9-1-10.1-2-11.6-2.3-2.7-.5-2.8-.4-2.5 2.8zM38 28c0 .5.7 1 1.6 1 .8 0 1.2-.5.9-1-.3-.6-1-1-1.6-1-.5 0-.9.4-.9 1zm-2.3 28.7c-.5 6.3-.3 8.9.6 9.5 2.8 1.8 3.5.6 4.2-6.5.9-9.2.5-11.1-2.1-11.5-2-.3-2.1.3-2.7 8.5zM33 89c0 .5.7 1 1.5 1s1.5-.5 1.5-1c0-.6-.7-1-1.5-1s-1.5.4-1.5 1zm34 3.9c0 1.1 1.8 1.5 18 3.5 6.4.8 12.7 1.9 14 2.4 1.4.4 3.5.7 4.8.6 1.2 0 2.2.2 2.2.6s1.6.6 3.6.3q3.6-.45 3 .6c-.4.5-1.3.8-2.1.4-.8-.3-1.5-.1-1.5.4 0 1.6 1.3 2.3 2.4 1.4.6-.4 2-1.1 3-1.5 1.6-.6 1.7-.4.6.9-.7.9-.9 1.5-.4 1.3s1.1.1 1.2.7c1 2.8 4.2 4.7 4.2 2.4 0-.5-.5-.7-1-.4s-1-.1-1-.9c0-.9.4-1.6.9-1.6 1.1 0 2.2-5.5 1.4-7.5-.5-1.4-.7-1.4-2.3 0-1.5 1.4-3.6 1.3-22.6-1-11.5-1.4-22.6-2.8-24.6-3.1-2.4-.4-3.8-.2-3.8.5z"/><path fill="#AEA179" stroke="#AEA179" stroke-width=".1" d="M101.2 55.5c.2 2.2 1.4 3 4 2.6.4 0 .5.6.2 1.4-.4 1 0 1.5 1.5 1.5 1.2 0 2.1.4 2.1 1 0 .5-.8.7-1.7.4-1-.3-.6.2 1 1.1 1.5.8 2.7 1.8 2.7 2.1s-.5.2-1.2-.2-.8-.3-.4.4 1.2 1.2 1.8 1.2 1.6.7 2.3 1.6c1 1.4 1.2.5 1.3-4.7.1-3.5-.1-6.9-.5-7.5-.9-1.3-7.7-3.4-11-3.4-1.8 0-2.2.5-2.1 2.5zm14.1 20c0 2.7.2 3.8.4 2.2.2-1.5.2-3.7 0-5-.2-1.2-.4 0-.4 2.8zm-28.1-1c-1.4 1.6-.2 2.1 1.4.6.5-.5 1.8-1.1 2.9-1.4 1.6-.4 1.5-.5-.5-.5-1.4-.1-3.1.5-3.8 1.3zm-3 3.5c0 1.9.2 2.7.5 1.7.2-.9.2-2.5 0-3.5-.3-.9-.5-.1-.5 1.8z"/><path fill="#C97900" stroke="#C97900" stroke-width=".1" d="M191 27.9c0 1.2.4 2.1.9 2.1.4 0 .7 1.2.5 2.7-.2 1.6-.1 2 .2.9.5-1.5.8-1.6 1.4-.5 1.3 2 1.8.8 1.2-3.4-.4-3.5-.5-3.6-1.9-2-.8 1-1.2 1.3-.9.6.4-.6.2-1.4-.4-1.8-.5-.3-1 .3-1 1.4z"/><path fill="#D7A11B" stroke="#D7A11B" stroke-width=".1" d="M17 29c0 2.4 2.5 5.4 3.9 4.6.6-.4.8-1.3.4-1.9-.4-.7 0-.6 1 .2 1.8 1.5 2.3 2.6.7 1.6-.5-.3-1 .1-1 1s.4 1.4.9 1.1 1.4.1 2.1.9c.6.7 1.8 1.1 2.6.8 1-.4 1.2 0 .7 1.3-.6 1.7-.5 1.8 1.3.4 1-.8 1.6-1.1 1.2-.6-.9 1.1 1.3 3.3 3.3 3.3 1.5 0 2-1.7 1.9-6.2-.1-3.9-.5-5.2-1.7-5.2s-1.7 1.1-1.4 3c.1.5-.3.6-.9.2-.6-.3-.8-1.1-.5-1.6 1.1-1.6-.7-1-2.2.8-1.3 1.6-1.3 1.6-.3-.6.8-1.6.9-2.6.2-3.3-1.3-1.3-4.2-.3-4.2 1.3 0 .8.4.8 1.5-.1 1.2-1 1.5-1 1.5.2 0 2.3-3 1.7-4.7-.8-1.7-2.7-6.3-3-6.3-.4zm18.3 6.9c-.5.3-1.3 1.5-1.6 2.5-.4 1-1 1.7-1.3 1.4-.8-.9 1.8-5.8 2.9-5.1.5.3.6.8 0 1.2z"/><path fill="#C98600" stroke="#C98600" stroke-width=".1" d="M193 33.5c0 1.1.3 3.7.6 5.7.5 3.1 1.1 3.8 2.9 3.8 2.1 0 2.1-.2 1.1-4.9-.5-2.8-1.4-4.7-1.9-4.4s-1.3-.1-1.8-.8c-.7-1.1-.9-.9-.9.6zm7.8 29.3c-2.2.4-2.2 1.1-.2 11.2.9 4.5 1.4 8.3 1.2 8.6-.3.2-6.2 1.5-13.3 2.9-12.1 2.3-14.4 3-13.4 3.9.2.2 6.7-.8 14.5-2.3 10.4-1.9 14-2.9 13.6-3.9-.2-.7.5-1.6 1.6-1.9 2-.5 2-.5.1-9.1-2.3-10.5-2-9.9-4.1-9.4z"/><path fill="#A19479" stroke="#A19479" stroke-width=".1" d="M100.3 72.9c.1 1.4.9 2.6 1.7 2.8 1 .3 1.1.2.4-.4-.7-.4-1.4-1.7-1.7-2.8-.5-1.6-.5-1.5-.4.4z"/><path fill="#A17943" stroke="#A17943" stroke-width=".1" d="M39.9 87.3c.5.5 1.9.7 3.2.5 2-.3 1.9-.5-.9-.9-2-.3-2.9-.2-2.3.4zm26.4 3.4c.9.2 2.3.2 3 0 .6-.3-.1-.5-1.8-.5-1.6 0-2.2.2-1.2.5zm73.6 1.6c.5.5 1.9.7 3.2.5 2-.3 1.9-.5-.9-.9-2-.3-2.9-.2-2.3.4zm-57.6.4c.9.2 2.3.2 3 0 .6-.3-.1-.5-1.8-.5-1.6 0-2.2.2-1.2.5zm9 1c.9.2 2.3.2 3 0 .6-.3-.1-.5-1.8-.5-1.6 0-2.2.2-1.2.5zm17 2c.9.2 2.3.2 3 0 .6-.3-.1-.5-1.8-.5-1.6 0-2.2.2-1.2.5z"/><path fill="#BC6B00" stroke="#BC6B00" stroke-width=".1" d="M231 78.5c0 .4.9 4.2 2 8.6 2.2 8.3 2 9.9-.8 9.9-3.4 0-24.6 4.4-22.9 4.8 2.1.4 26.9-3.7 28-4.7 1-1-3.7-18.4-5.1-18.9-.7-.2-1.2-.1-1.2.3zm-83.5 33.3c-25 4.6-26.2 4.8-25.4 5.6.6.6 53.7-8.9 54.5-9.7 1.3-1.2-3.6-.5-29.1 4.1z"/><path fill="#865E36" stroke="#865E36" stroke-width=".1" d="M41.2 58c0 1.9.2 2.7.5 1.7.2-.9.2-2.5 0-3.5-.3-.9-.5-.1-.5 1.8zm-1 14.5c0 1.6.2 2.2.5 1.2.2-.9.2-2.3 0-3-.3-.6-.5.1-.5 1.8z"/><path fill="#AE8643" stroke="#AE8643" stroke-width=".1" d="M40.7 84.7c-.4.3-.7 1-.7 1.3 0 1 22.5 3.4 24.5 2.6.8-.3 1.5-.1 1.5.4 0 .6 1.2 1 2.8 1.1 1.5 0 4.6.1 6.9.2 2.4.1 4.4-.2 4.5-.8.2-.5-7.3-1.9-16.7-3.2-18.4-2.4-21.8-2.7-22.8-1.6zM82 89.6c0 .1.6.7 1.4 1.3 1 .9 1.5.8 1.9-.3.4-1 0-1.4-1.4-1.3-1 .1-1.9.2-1.9.3z"/><path fill="#D7C95E" stroke="#D7C95E" stroke-width=".1" d="M226 58.7c0 2.3 3.7 16.3 4.4 17.1 1.8 1.7 1.6-1.8-.4-9.8-2.2-8.2-4-11.6-4-7.3z"/><path fill="#A1945E" stroke="#A1945E" stroke-width=".1" d="M61.2 67.2c-.8 1-.4 1.3 1.5 1.5 1.5 0 2.2-.2 1.7-.6-.5-.3-1.2-1-1.5-1.4s-1.1-.2-1.7.5z"/><path fill="#A1865E" stroke="#A1865E" stroke-width=".1" d="M53.6 33.7c-.3.4-.6 2.6-.6 5 0 3.2.4 4.3 1.5 4.3.9 0 1.5-.9 1.5-2.1 0-1.6.5-2 2-1.6 1.1.3 1.8.1 1.4-.4-.3-.5-1.2-.9-2-.9s-1.4-.7-1.4-1.5c0-1 1-1.5 3.2-1.5 1.7 0 2.9-.2 2.7-.4-.8-.7-7.7-1.4-8.3-.9zM76 42.4c.7.9 1.1 3.3.8 5.6-.3 3.1 0 4 1.2 4 .8 0 2.6.3 4 .5l2.5.6-2.4-1.1c-2-.9-2.3-1.6-1.9-5.4.1-2.4.1-4.3-.1-4.1-.1.2-1.5-.1-2.9-.6-2.2-.8-2.3-.8-1.2.5zm14.3 5.2c-.8.8-.9 1.5-.3 1.9.6.3 1 .2 1-.4 0-.5.8-1.1 1.8-1.3 1.4-.3 1.4-.5.2-1-.8-.3-2.1 0-2.7.8zm-22 17.1c.9.2 2.3.2 3 0 .6-.3-.1-.5-1.8-.5-1.6 0-2.2.2-1.2.5zm48.1 9c.3 3.8.7 9.6.8 13q.3 6.3 1.5 6.3c.9 0 1.1-2.4.7-9.8-.3-5.3-.8-10.4-1.1-11.2-.4-.8-.5-2.3-.4-3.3.1-.9-.3-1.7-.9-1.7-.9 0-1 1.9-.6 6.7zM87 69.9c1.4.4 5 1.1 8 1.4 3.2.3 4.5.3 3-.2-1.4-.4-5-1.1-8-1.4-3.2-.3-4.5-.3-3 .2zm2.7 5.1c1 .9 11.1 2.4 10.2 1.6-.4-.4-3-1-5.8-1.5-2.9-.5-4.9-.5-4.4-.1zm-3.8 1.1c0 .2-.2 1.1-.4 2.1s.5 1.8 2.1 2.1c1.3.2 2.4.2 2.4 0 0-.6-4-4.7-4.1-4.2zm8.6 5c2.2.4 5.4.8 7 .7 2.6 0 2.5-.1-1-.9-2.2-.4-5.3-.8-7-.7-2.6 0-2.5.1 1 .9z"/><path fill="#94865E" stroke="#94865E" stroke-width=".1" d="M114.5 39.7c.3 1.5 1.4 19.7 1.5 24.1 0 .7.4 1 1 .7.6-.4.8-4.7.4-11.3-.6-12.2-1.1-15.2-2.3-15.2-.5 0-.8.8-.6 1.7zM89.2 45c.1 1.6.6 3 1 3s.8-1.4.8-3c0-1.7-.5-3-1-3-.6 0-.9 1.3-.8 3zm14.8 3.5c0 1.9.5 3.5 1 3.5.6 0 1-1.6 1-3.5s-.4-3.5-1-3.5c-.5 0-1 1.6-1 3.5z"/><path fill="#C9BC51" stroke="#C9BC51" stroke-width=".1" d="M8.2 71.7c-.5 4.3-1 8.9-1 10.3 0 5.1 2.8-3.7 3.4-11 .9-9.8-1.1-9.2-2.4.7zM38.5 109c-1.6.7-1.4.9 1.3.7 1.7-.1 3.2-.5 3.2-.9 0-1-1.9-.9-4.5.2zm10.5 1c2 1.3 5.3 1.3 4.5 0-.3-.6-1.8-1-3.3-1-2.1 0-2.4.2-1.2 1zm8 1.1c0 .5.9.9 2 .9s2-.4 2-.8-.9-.8-2-.9-2 .2-2 .8z"/><path fill="#AE7943" stroke="#AE7943" stroke-width=".1" d="M161 85.8c-20.6 4.1-37.7 7.7-38 7.9-1.3 1.1 2.7 1.9 5.8 1.2 2.1-.4 5.4-1.1 7.5-1.4 2.4-.4 3.5-1 3.1-1.7-.5-.7-.2-.8.5-.3 1.7 1 12.3-.4 11.6-1.6-.3-.5 0-.6.7-.4 1.1.5 13.6-1.7 39.8-6.9 7.6-1.5 9-2 9-3.2 0-1.7 4-2.4-40 6.4zM63 89l-2.5.8 2.8.1c1.5.1 2.7-.4 2.7-.9 0-.6-.1-1-.2-.9-.2.1-1.4.5-2.8.9zm16 1.7C76.5 92 76.5 92 80.1 92c2.3 0 3.6-.5 3.6-1.3 0-1.7-1.5-1.7-4.7 0zm6.4-.6c-.3.6-.2 1.4.2 1.8 1.2 1.1 31.2 4.4 32.4 3.6 2.5-1.5.2-2.3-10.7-3.5-6.5-.7-12.7-1.4-13.7-1.6-1.1-.2-2.5.1-3.3.7-.9.8-1.4.7-1.9-.5-.7-1.9-2-2.1-3-.5z"/><path fill="#D7C96B" stroke="#D7C96B" stroke-width=".1" d="M191.5 104.2c-6 1-11.4 2.4-12 3-.7.7-.4.9 1 .5 1.1-.3 7.4-1.5 14-2.7 11.5-2 15.5-3.1 10.4-2.9-1.3.1-7.3 1-13.4 2.1z"/></svg>